<?xml version="1.0" standalone="no"?>
<!DOCTYPE svg PUBLIC "-//W3C//DTD SVG 20010904//EN"
 "http://www.w3.org/TR/2001/REC-SVG-20010904/DTD/svg10.dtd">
<svg version="1.0" xmlns="http://www.w3.org/2000/svg"
 width="500.000000pt" height="500.000000pt" viewBox="0 0 500.000000 500.000000"
 preserveAspectRatio="xMidYMid meet">

<g transform="translate(0.000000,500.000000) scale(0.100000,-0.100000)"
fill="#000000" stroke="none">
<path d="M0 2500 l0 -2500 2500 0 2500 0 0 2500 0 2500 -2500 0 -2500 0 0
-2500z m2318 939 c7 -12 16 -18 19 -15 3 3 1 12 -6 20 -9 11 -7 14 14 14 15 0
32 -9 40 -21 21 -30 9 -34 -14 -6 -11 13 -20 19 -21 14 0 -6 5 -16 12 -23 8
-8 4 -11 -17 -9 -25 2 -71 47 -49 47 5 0 15 -9 22 -21z m-1153 -51 c0 -60 -8
-74 -20 -35 l-7 22 -8 -25 c-6 -19 -8 -9 -9 38 -1 60 0 63 22 60 20 -3 22 -8
22 -60z m43 55 c-20 -5 -25 -43 -5 -44 10 0 10 -2 0 -6 -20 -7 -16 -51 5 -56
13 -4 11 -5 -5 -6 -21 -1 -23 3 -23 59 0 56 2 60 23 59 16 -1 18 -2 5 -6z m69
-60 c6 -29 6 -53 2 -53 -5 0 -9 5 -9 10 0 14 -27 12 -34 -2 -3 -7 -3 9 0 36
11 93 25 96 41 9z m62 45 c-1 -17 -2 -19 -6 -5 -9 35 -23 16 -23 -33 0 -51 15
-69 23 -27 4 18 4 17 6 -6 1 -24 -2 -28 -21 -25 -19 2 -24 10 -26 47 -4 55 2
71 28 71 14 0 20 -6 19 -22z m43 -38 c-2 -33 -7 -60 -12 -60 -5 0 -10 27 -12
60 -2 48 0 60 12 60 12 0 14 -12 12 -60z m62 3 c-9 -78 -14 -79 -14 -5 0 38 4
62 11 62 7 0 8 -19 3 -57z m36 -3 c0 -60 -12 -80 -24 -37 -7 28 4 97 15 97 5
0 9 -27 9 -60z m58 3 c-3 -51 -6 -58 -25 -61 -22 -3 -23 0 -23 57 0 59 1 61
25 61 25 0 26 -2 23 -57z m62 -3 c0 -57 -1 -60 -25 -60 -24 0 -25 3 -25 60 0
57 1 60 25 60 24 0 25 -3 25 -60z m43 53 c-7 -2 -13 -13 -13 -24 0 -10 6 -19
13 -20 10 0 10 -2 0 -6 -20 -7 -16 -51 5 -56 13 -4 11 -5 -5 -6 -21 -1 -23 3
-23 59 0 51 3 60 18 59 10 0 12 -3 5 -6z m713 -52 c9 8 14 8 14 1 0 -6 -4 -14
-10 -17 -5 -3 -10 -12 -10 -18 1 -7 12 2 25 18 27 32 35 23 10 -12 -8 -12 -25
-20 -40 -20 -19 0 -23 3 -16 10 6 6 11 16 11 22 -1 5 -10 -1 -21 -14 -27 -33
-34 -20 -7 14 13 17 24 23 26 16 3 -9 7 -9 18 0z m-817 -625 c83 -214 151
-390 151 -392 0 -2 -35 -4 -78 -4 l-78 0 -17 48 c-103 292 -141 392 -147 385
-4 -4 -40 -104 -80 -220 l-74 -213 -78 0 c-43 0 -78 2 -78 5 0 5 268 698 294
759 10 24 20 36 25 30 5 -5 77 -184 160 -398z m474 114 c78 -159 144 -290 147
-290 4 0 67 129 141 288 l134 287 78 3 77 3 0 -306 0 -305 -75 0 -74 0 -3 128
-3 127 -102 -207 -102 -208 -68 0 -69 0 -109 213 -110 212 -3 -227 -2 -228
-75 0 -75 0 0 400 0 400 76 0 76 0 141 -290z m1092 -97 c83 -212 151 -393 153
-400 3 -11 -12 -13 -75 -11 l-78 3 -75 212 c-41 116 -78 214 -81 217 -3 4 -39
-87 -79 -201 -40 -115 -75 -214 -77 -220 -6 -14 -149 -19 -156 -5 -3 5 94 260
297 780 3 6 9 12 13 12 4 0 76 -174 158 -387z m520 127 l180 -259 5 257 5 257
75 0 75 0 0 -395 0 -395 -75 -3 -75 -2 -180 258 -180 258 -5 -160 -5 -161 -77
-3 -78 -3 0 299 c0 164 3 302 7 305 3 4 38 7 77 7 l71 -1 180 -259z m-2465
-770 l0 -80 -285 0 -285 0 0 80 0 80 285 0 285 0 0 -80z m320 -315 l0 -395 55
0 56 0 -3 -77 -3 -78 -197 -3 -198 -2 0 80 0 80 55 0 55 0 0 395 0 395 90 0
90 0 0 -395z m893 162 c49 -128 92 -239 96 -246 8 -13 15 3 93 214 l34 90 92
3 c50 1 92 1 92 -1 0 -12 -293 -763 -300 -771 -12 -12 -23 14 -161 377 -89
235 -126 323 -132 310 -4 -10 -65 -168 -135 -352 -70 -184 -132 -336 -137
-338 -7 -2 -234 571 -303 765 -3 10 16 12 89 10 l93 -3 56 -152 c30 -84 58
-154 61 -158 5 -4 136 325 180 453 l11 32 92 0 91 0 88 -233z m1029 -232 c98
-253 178 -465 178 -472 0 -10 -23 -13 -89 -13 l-89 0 -56 158 c-31 86 -74 207
-95 267 -23 64 -42 104 -45 95 -3 -8 -46 -127 -94 -265 l-87 -250 -93 -3 c-53
-2 -92 1 -92 7 0 6 293 769 357 929 3 7 10 11 16 9 6 -2 91 -210 189 -462z
m706 436 c65 -29 125 -95 142 -156 18 -63 9 -179 -18 -232 -23 -45 -84 -100
-119 -109 -13 -4 -23 -8 -23 -10 0 -2 41 -91 90 -199 50 -108 90 -200 90 -205
0 -6 -40 -10 -93 -10 l-94 0 -88 190 -88 190 -53 0 -54 0 0 -190 0 -191 -87 3
-88 3 -3 278 -2 277 186 0 c203 0 241 8 263 56 16 36 14 86 -5 113 -31 43 -70
51 -264 51 l-180 0 0 86 0 85 218 -3 c204 -3 220 -4 270 -27z m492 -365 l0
-395 53 -3 52 -3 0 -75 0 -75 -197 -3 -198 -2 0 79 0 80 53 3 52 3 3 393 2
392 90 0 90 0 0 -394z m-3640 -251 l0 -306 -87 3 -88 3 -3 290 c-1 159 0 295
3 302 3 9 30 13 90 13 l85 0 0 -305z"/>
<path d="M1130 3410 c0 -16 5 -30 10 -30 6 0 10 14 10 30 0 17 -4 30 -10 30
-5 0 -10 -13 -10 -30z"/>
<path d="M1252 3385 c0 -16 2 -22 5 -12 2 9 2 23 0 30 -3 6 -5 -1 -5 -18z"/>
<path d="M1513 3390 c0 -30 2 -43 4 -27 2 15 2 39 0 55 -2 15 -4 2 -4 -28z"/>
<path d="M1570 3389 c0 -31 4 -48 10 -44 6 3 10 26 10 51 0 24 -4 44 -10 44
-5 0 -10 -23 -10 -51z"/>
</g>
</svg>
